<svg id="Capa_1" enable-background="new 0 0 512 512" height="512" viewBox="0 0 512 512" width="512" xmlns="http://www.w3.org/2000/svg"><g><g><g><g><g><g><g><g><g><circle cx="256" cy="256" fill="#bfe1ff" r="256"/></g></g></g></g></g></g></g></g><path d="m325.066 502.575c107.835-30.142 186.934-129.121 186.934-246.575 0-24.744-3.511-48.667-10.061-71.3l-74.899-74.899-178.734 316.018.257.071-.091.091z" fill="#87c7ff"/><g><g><path d="m186.606 159.648s-21.502-45.937-101.647-49.846l13.683 112.398z" fill="#fe6a16"/></g><g><path d="m325.393 159.648s21.502-45.937 101.647-49.846l-13.683 112.398z" fill="#f24500"/></g></g><g><path d="m58.446 232.951 13.48 13.693 62.304 40.388 83.403 95.783 30.673 43.004h15.388l1.178-1.197v-302.893c-67.512-3.198-135.677 33.326-206.426 111.222z" fill="#fe8205"/></g><g><path d="m453.554 232.951c-66.305-74.011-131.52-111.632-197.434-111.401v304.27h7.573l31.803-54.407 43.33-50.823 101.248-73.944z" fill="#fa5d0f"/></g><g><path d="m71.925 246.644 162.146 164.715-7.814-108.415c-2.287-31.728-28.694-56.301-60.504-56.301h-93.828z" fill="#fff"/></g><g><circle cx="184.728" cy="283.774" fill="#555a66" r="18.244"/></g><g><path d="m440.074 246.644-162.146 164.715 7.814-108.415c2.287-31.728 28.694-56.301 60.504-56.301h93.828z" fill="#e9edf5"/></g><g><circle cx="327.272" cy="283.774" fill="#333940" r="18.244"/></g><g><path d="m248.472 425.98-34.533-34.533c-.689-.689-.689-1.807 0-2.496l3.264-3.264c21.427-21.427 56.168-21.427 77.595 0l3.264 3.264c.689.689.689 1.807 0 2.496l-34.533 34.533c-4.159 4.158-10.9 4.158-15.057 0z" fill="#555a66"/></g><g><path d="m298.061 388.951-3.264-3.264c-10.683-10.683-24.675-16.037-38.677-16.068v59.473c2.684-.03 5.359-1.064 7.407-3.112l34.533-34.534c.691-.688.691-1.805.001-2.495z" fill="#333940"/></g></g></svg>